<?xml version="1.0" encoding="utf-8"?>
<!-- Generator: Adobe Illustrator 21.0.0, SVG Export Plug-In . SVG Version: 6.00 Build 0)  -->
<svg version="1.1" id="Calque_1" xmlns="http://www.w3.org/2000/svg" xmlns:xlink="http://www.w3.org/1999/xlink" x="0px" y="0px"
	 viewBox="0 0 261 312" style="enable-background:new 0 0 261 312;" xml:space="preserve">
<style type="text/css">
	.st0{fill:#FFFFFF;}
	.st1{opacity:0.2;fill:none;stroke:#A9CDD3;stroke-width:2;stroke-miterlimit:10;}
	.st2{fill:#26C6DA;}
	.st3{fill:#37525B;}
</style>
<g>
	<path class="st0" d="M1106.3,188.9c0,0.8-0.2,1.4-0.6,2c-0.4,0.6-1,1-2,1.3c-0.9,0.3-2.2,0.6-3.7,0.8c-1.5,0.2-3.5,0.4-5.8,0.4
		c-2.2,0-4.2-0.1-5.8-0.4c-1.6-0.2-2.9-0.5-3.8-0.8c-0.9-0.3-1.6-0.8-2-1.3c-0.4-0.6-0.6-1.2-0.6-2V14.4c0-0.7,0.2-1.4,0.6-2
		c0.4-0.6,1.1-1,2.1-1.3c1-0.3,2.2-0.6,3.8-0.8c1.5-0.2,3.4-0.4,5.6-0.4c2.3,0,4.3,0.1,5.8,0.4c1.5,0.2,2.8,0.5,3.7,0.8
		c0.9,0.3,1.6,0.8,2,1.3c0.4,0.6,0.6,1.2,0.6,2V188.9z"/>
	<path class="st0" d="M1352.3,188.9c0,0.8-0.2,1.4-0.6,2c-0.4,0.6-1.1,1-2,1.3c-1,0.3-2.2,0.6-3.7,0.8c-1.5,0.2-3.4,0.4-5.9,0.4
		c-2.2,0-4.1-0.1-5.7-0.4c-1.6-0.2-2.8-0.5-3.8-0.8c-0.9-0.3-1.6-0.8-2-1.3c-0.4-0.6-0.6-1.2-0.6-2V30.6h-0.3l-64.1,159.1
		c-0.3,0.7-0.7,1.2-1.2,1.7c-0.5,0.5-1.3,0.9-2.2,1.2c-1,0.3-2.2,0.6-3.5,0.7c-1.4,0.1-3,0.2-4.9,0.2c-2,0-3.7-0.1-5.1-0.3
		c-1.4-0.2-2.6-0.4-3.5-0.8c-0.9-0.3-1.7-0.7-2.2-1.2s-0.9-1-1.1-1.5l-61.3-159.1h-0.1v158.4c0,0.8-0.2,1.4-0.6,2
		c-0.4,0.6-1.1,1-2,1.3c-1,0.3-2.2,0.6-3.8,0.8c-1.5,0.2-3.5,0.4-5.9,0.4c-2.3,0-4.2-0.1-5.8-0.4c-1.5-0.2-2.8-0.5-3.7-0.8
		c-0.9-0.3-1.5-0.8-1.9-1.3c-0.3-0.6-0.5-1.2-0.5-2V21.7c0-3.9,1-6.7,3.1-8.4c2.1-1.7,4.4-2.5,7-2.5h14.8c3,0,5.7,0.3,8,0.8
		c2.3,0.6,4.3,1.5,6,2.7c1.7,1.2,3.1,2.8,4.3,4.6c1.1,1.9,2.1,4.1,3,6.6l52,131.7h0.7l54.1-131.3c1-2.8,2.2-5.2,3.4-7.2
		c1.2-2,2.6-3.5,4.1-4.7c1.5-1.2,3.1-2,4.9-2.5s3.9-0.8,6.3-0.8h15.6c1.4,0,2.8,0.2,4.1,0.6c1.3,0.4,2.4,1.1,3.3,2
		c0.9,0.9,1.6,2,2.2,3.4c0.6,1.4,0.9,3,0.9,5V188.9z"/>
	<path class="st0" d="M1536.9,184c0.7,2.1,1.1,3.7,1.2,5c0,1.3-0.3,2.2-1.1,2.9c-0.7,0.7-2,1.1-3.7,1.3c-1.7,0.2-4.1,0.3-7,0.3
		s-5.2-0.1-7-0.2s-3-0.4-3.9-0.7c-0.9-0.3-1.5-0.8-2-1.3c-0.4-0.6-0.8-1.3-1.2-2.1l-15.6-44.3h-75.6l-14.9,43.7
		c-0.3,0.8-0.7,1.6-1.1,2.2c-0.5,0.6-1.1,1.1-2,1.5c-0.9,0.4-2.2,0.7-3.8,0.9c-1.6,0.2-3.8,0.3-6.4,0.3c-2.7,0-4.9-0.1-6.7-0.4
		c-1.7-0.2-3-0.7-3.7-1.3c-0.7-0.7-1-1.6-1-2.9c0-1.3,0.4-2.9,1.2-5l61-168.9c0.4-1,0.9-1.9,1.5-2.5c0.6-0.7,1.5-1.2,2.7-1.5
		c1.2-0.4,2.7-0.6,4.5-0.8c1.8-0.1,4.1-0.2,7-0.2c3,0,5.5,0.1,7.4,0.2c2,0.1,3.6,0.4,4.8,0.8c1.2,0.4,2.2,0.9,2.8,1.6
		c0.7,0.7,1.2,1.6,1.5,2.6L1536.9,184z M1458.6,34.9h-0.1l-31.3,90.6h63.2L1458.6,34.9z"/>
</g>
<g>
	<g>
		<path class="st0" d="M-254.8-127.2c0,0.8-0.2,1.4-0.6,2c-0.4,0.6-1,1-2,1.3c-0.9,0.3-2.2,0.6-3.7,0.8c-1.5,0.2-3.5,0.4-5.8,0.4
			c-2.2,0-4.2-0.1-5.8-0.4c-1.6-0.2-2.9-0.5-3.8-0.8c-0.9-0.3-1.6-0.8-2-1.3c-0.4-0.6-0.6-1.2-0.6-2v-174.5c0-0.7,0.2-1.4,0.6-2
			c0.4-0.6,1.1-1,2.1-1.3c1-0.3,2.2-0.6,3.8-0.8c1.5-0.2,3.4-0.4,5.6-0.4c2.3,0,4.3,0.1,5.8,0.4c1.5,0.2,2.8,0.5,3.7,0.8
			c0.9,0.3,1.6,0.8,2,1.3c0.4,0.6,0.6,1.2,0.6,2V-127.2z"/>
	</g>
	<g>
		<path class="st0" d="M-8.7-127.2c0,0.8-0.2,1.4-0.6,2c-0.4,0.6-1.1,1-2,1.3c-1,0.3-2.2,0.6-3.7,0.8c-1.5,0.2-3.4,0.4-5.9,0.4
			c-2.2,0-4.1-0.1-5.7-0.4c-1.6-0.2-2.8-0.5-3.8-0.8c-0.9-0.3-1.6-0.8-2-1.3c-0.4-0.6-0.6-1.2-0.6-2v-158.4h-0.3l-64.1,159.1
			c-0.3,0.7-0.7,1.2-1.2,1.7c-0.5,0.5-1.3,0.9-2.2,1.2c-1,0.3-2.2,0.6-3.5,0.7c-1.4,0.1-3,0.2-4.9,0.2c-2,0-3.7-0.1-5.1-0.3
			c-1.4-0.2-2.6-0.4-3.5-0.8c-0.9-0.3-1.7-0.7-2.2-1.2c-0.5-0.5-0.9-1-1.1-1.5l-61.3-159.1h-0.1v158.4c0,0.8-0.2,1.4-0.6,2
			c-0.4,0.6-1.1,1-2,1.3c-1,0.3-2.2,0.6-3.8,0.8c-1.5,0.2-3.5,0.4-5.9,0.4c-2.3,0-4.2-0.1-5.8-0.4c-1.5-0.2-2.8-0.5-3.7-0.8
			c-0.9-0.3-1.5-0.8-1.9-1.3c-0.3-0.6-0.5-1.2-0.5-2v-167.2c0-3.9,1-6.7,3.1-8.4c2.1-1.7,4.4-2.5,7-2.5h14.8c3,0,5.7,0.3,8,0.8
			c2.3,0.6,4.3,1.5,6,2.7c1.7,1.2,3.1,2.8,4.3,4.6c1.1,1.9,2.1,4.1,3,6.6l52,131.7h0.7l54.1-131.3c1-2.8,2.2-5.2,3.4-7.2
			c1.2-2,2.6-3.5,4.1-4.7c1.5-1.2,3.1-2,4.9-2.5s3.9-0.8,6.3-0.8h15.6c1.4,0,2.8,0.2,4.1,0.6c1.3,0.4,2.4,1.1,3.3,2
			c0.9,0.9,1.6,2,2.2,3.4c0.6,1.4,0.9,3,0.9,5V-127.2z"/>
	</g>
	<g>
		<path class="st0" d="M175.8-132.1c0.7,2.1,1.1,3.7,1.2,5c0,1.3-0.3,2.2-1.1,2.9c-0.7,0.7-2,1.1-3.7,1.3c-1.7,0.2-4.1,0.3-7,0.3
			s-5.2-0.1-7-0.2s-3-0.4-3.9-0.7c-0.9-0.3-1.5-0.8-2-1.3c-0.4-0.6-0.8-1.3-1.2-2.1l-15.6-44.3H60l-14.9,43.7
			c-0.3,0.8-0.7,1.6-1.1,2.2c-0.5,0.6-1.1,1.1-2,1.5c-0.9,0.4-2.2,0.7-3.8,0.9c-1.6,0.2-3.8,0.3-6.4,0.3c-2.7,0-4.9-0.1-6.7-0.4
			c-1.7-0.2-3-0.7-3.7-1.3c-0.7-0.7-1-1.6-1-2.9c0-1.3,0.4-2.9,1.2-5l61-168.9c0.4-1,0.9-1.9,1.5-2.5c0.6-0.7,1.5-1.2,2.7-1.5
			c1.2-0.4,2.7-0.6,4.5-0.8c1.8-0.1,4.1-0.2,7-0.2c3,0,5.5,0.1,7.4,0.2c2,0.1,3.6,0.4,4.8,0.8c1.2,0.4,2.2,0.9,2.8,1.6
			c0.7,0.7,1.2,1.6,1.5,2.6L175.8-132.1z M97.5-281.3h-0.1L66-190.6h63.2L97.5-281.3z"/>
	</g>
</g>
<path class="st0" d="M1539.5,87.3c-0.7-2.1-1.1-3.7-1.2-5c0-1.3,0.3-2.2,1.1-2.9s2-1.1,3.7-1.3c1.7-0.2,4.1-0.3,7-0.3
	c2.9,0,5.2,0.1,7,0.2c1.7,0.1,3,0.4,3.9,0.7c0.9,0.3,1.5,0.8,2,1.3c0.4,0.6,0.8,1.3,1.2,2.1l15.6,44.3h75.6l14.9-43.7
	c0.3-0.8,0.7-1.6,1.1-2.2c0.5-0.6,1.1-1.1,2-1.5c0.9-0.4,2.2-0.7,3.8-0.9c1.6-0.2,3.8-0.3,6.4-0.3c2.7,0,4.9,0.1,6.7,0.4
	c1.7,0.2,3,0.7,3.7,1.3c0.7,0.7,1,1.6,1,2.9c0,1.3-0.4,2.9-1.2,5l-61,168.9c-0.4,1-0.9,1.9-1.5,2.5c-0.6,0.7-1.5,1.2-2.7,1.5
	c-1.2,0.4-2.7,0.6-4.5,0.8c-1.8,0.1-4.1,0.2-7,0.2c-3,0-5.5-0.1-7.4-0.2c-2-0.1-3.6-0.4-4.8-0.8c-1.2-0.4-2.2-0.9-2.8-1.6
	c-0.7-0.7-1.2-1.6-1.5-2.6L1539.5,87.3z M1617.8,236.4h0.1l31.3-90.6H1586L1617.8,236.4z"/>
<path class="st0" d="M-276.6,26.1c-0.7-2.1-1.1-3.7-1.2-5c0-1.3,0.3-2.2,1.1-2.9c0.7-0.7,2-1.1,3.7-1.3c1.7-0.2,4.1-0.3,7-0.3
	s5.2,0.1,7,0.2c1.7,0.1,3,0.4,3.9,0.7c0.9,0.3,1.5,0.8,2,1.3c0.4,0.6,0.8,1.3,1.2,2.1l15.6,44.3h75.6l14.9-43.7
	c0.3-0.8,0.7-1.6,1.1-2.2c0.5-0.6,1.1-1.1,2-1.5c0.9-0.4,2.2-0.7,3.8-0.9c1.6-0.2,3.8-0.3,6.4-0.3c2.7,0,4.9,0.1,6.7,0.4
	c1.7,0.2,3,0.7,3.7,1.3c0.7,0.7,1,1.6,1,2.9c0,1.3-0.4,2.9-1.2,5l-61,168.9c-0.4,1-0.9,1.9-1.5,2.5c-0.6,0.7-1.5,1.2-2.7,1.5
	c-1.2,0.4-2.7,0.6-4.5,0.8c-1.8,0.1-4.1,0.2-7,0.2c-3,0-5.5-0.1-7.4-0.2c-2-0.1-3.6-0.4-4.8-0.8c-1.2-0.4-2.2-0.9-2.8-1.6
	s-1.2-1.6-1.5-2.6L-276.6,26.1z M-198.3,175.3h0.1l31.3-90.6h-63.2L-198.3,175.3z"/>
<g>
	<polygon class="st1" points="1649,-198.8 1649,-40.9 1856.2,34.5 1856.2,-123.4 	"/>
	<g>
		<polygon class="st2" points="1773.6,-207.4 1773.6,-133.3 1676.3,-97.8 1676.3,-172 		"/>
		<polygon class="st2" points="1773.6,-113.5 1773.6,-39.4 1676.3,-4 1676.3,-78.1 		"/>
		<polygon class="st3" points="1790.6,-113.5 1790.6,-39.4 1887.9,-4 1887.9,-78.1 		"/>
		<polygon class="st3" points="1790.6,-20 1790.6,54.1 1887.9,89.5 1887.9,15.4 		"/>
	</g>
</g>
<g>
	<polygon class="st1" points="11.1,16.2 11.1,174.1 218.2,249.4 218.2,91.6 	"/>
	<g>
		<polygon class="st2" points="135.7,7.5 135.7,81.7 38.4,117.1 38.4,42.9 		"/>
		<polygon class="st2" points="135.7,101.4 135.7,175.6 38.4,211 38.4,136.8 		"/>
		<polygon class="st3" points="152.6,101.4 152.6,175.6 249.9,211 249.9,136.8 		"/>
		<polygon class="st3" points="152.6,194.9 152.6,269.1 249.9,304.5 249.9,230.3 		"/>
	</g>
</g>
</svg>
