<?xml version="1.0" encoding="utf-8"?>
<!-- Generator: Adobe Illustrator 21.0.0, SVG Export Plug-In . SVG Version: 6.00 Build 0)  -->
<svg version="1.1" id="Calque_1" xmlns="http://www.w3.org/2000/svg" xmlns:xlink="http://www.w3.org/1999/xlink" x="0px" y="0px"
	 viewBox="0 0 480 217" style="enable-background:new 0 0 480 217;" xml:space="preserve">
<style type="text/css">
	.st0{fill:#FFFFFF;}
	.st1{opacity:0.2;fill:none;stroke:#A9CDD3;stroke-width:2;stroke-miterlimit:10;}
	.st2{fill:#26C6DA;}
	.st3{fill:#37525B;}
</style>
<g>
	<path class="st0" d="M1397.3,511.9c0,0.8-0.2,1.4-0.6,2c-0.4,0.6-1,1-2,1.3c-0.9,0.3-2.2,0.6-3.7,0.8c-1.5,0.2-3.5,0.4-5.8,0.4
		c-2.2,0-4.2-0.1-5.8-0.4c-1.6-0.2-2.9-0.5-3.8-0.8s-1.6-0.8-2-1.3c-0.4-0.6-0.6-1.2-0.6-2V337.4c0-0.7,0.2-1.4,0.6-2
		c0.4-0.6,1.1-1,2.1-1.3c1-0.3,2.2-0.6,3.8-0.8s3.4-0.4,5.6-0.4c2.3,0,4.3,0.1,5.8,0.4c1.5,0.2,2.8,0.5,3.7,0.8
		c0.9,0.3,1.6,0.8,2,1.3c0.4,0.6,0.6,1.2,0.6,2V511.9z"/>
	<path class="st0" d="M1643.3,511.9c0,0.8-0.2,1.4-0.6,2c-0.4,0.6-1.1,1-2,1.3c-1,0.3-2.2,0.6-3.7,0.8c-1.5,0.2-3.4,0.4-5.9,0.4
		c-2.2,0-4.1-0.1-5.7-0.4c-1.6-0.2-2.8-0.5-3.8-0.8c-0.9-0.3-1.6-0.8-2-1.3c-0.4-0.6-0.6-1.2-0.6-2V353.6h-0.3l-64.1,159.1
		c-0.3,0.7-0.7,1.2-1.2,1.7c-0.5,0.5-1.3,0.9-2.2,1.2c-1,0.3-2.2,0.6-3.5,0.7c-1.4,0.1-3,0.2-4.9,0.2c-2,0-3.7-0.1-5.1-0.3
		c-1.4-0.2-2.6-0.4-3.5-0.8c-0.9-0.3-1.7-0.7-2.2-1.2s-0.9-1-1.1-1.5l-61.3-159.1h-0.1v158.4c0,0.8-0.2,1.4-0.6,2
		c-0.4,0.6-1.1,1-2,1.3c-1,0.3-2.2,0.6-3.8,0.8c-1.5,0.2-3.5,0.4-5.9,0.4c-2.3,0-4.2-0.1-5.8-0.4c-1.5-0.2-2.8-0.5-3.7-0.8
		c-0.9-0.3-1.5-0.8-1.9-1.3c-0.3-0.6-0.5-1.2-0.5-2V344.7c0-3.9,1-6.7,3.1-8.4c2.1-1.7,4.4-2.5,7-2.5h14.8c3,0,5.7,0.3,8,0.8
		c2.3,0.6,4.3,1.5,6,2.7c1.7,1.2,3.1,2.8,4.3,4.6c1.1,1.9,2.1,4.1,3,6.6l52,131.7h0.7l54.1-131.3c1-2.8,2.2-5.2,3.4-7.2
		c1.2-2,2.6-3.5,4.1-4.7c1.5-1.2,3.1-2,4.9-2.5c1.8-0.5,3.9-0.8,6.3-0.8h15.6c1.4,0,2.8,0.2,4.1,0.6c1.3,0.4,2.4,1.1,3.3,2
		c0.9,0.9,1.6,2,2.2,3.4c0.6,1.4,0.9,3,0.9,5V511.9z"/>
	<path class="st0" d="M1827.9,507c0.7,2.1,1.1,3.7,1.2,5c0,1.3-0.3,2.2-1.1,2.9c-0.7,0.7-2,1.1-3.7,1.3c-1.7,0.2-4.1,0.3-7,0.3
		s-5.2-0.1-7-0.2c-1.7-0.1-3-0.4-3.9-0.7c-0.9-0.3-1.5-0.8-2-1.3c-0.4-0.6-0.8-1.3-1.2-2.1l-15.6-44.3h-75.6l-14.9,43.7
		c-0.3,0.8-0.7,1.6-1.1,2.2c-0.5,0.6-1.1,1.1-2,1.5c-0.9,0.4-2.2,0.7-3.8,0.9c-1.6,0.2-3.8,0.3-6.4,0.3c-2.7,0-4.9-0.1-6.7-0.4
		c-1.7-0.2-3-0.7-3.7-1.3c-0.7-0.7-1-1.6-1-2.9c0-1.3,0.4-2.9,1.2-5l61-168.9c0.4-1,0.9-1.9,1.5-2.5c0.6-0.7,1.5-1.2,2.7-1.5
		c1.2-0.4,2.7-0.6,4.5-0.8c1.8-0.1,4.1-0.2,7-0.2c3,0,5.5,0.1,7.4,0.2c2,0.1,3.6,0.4,4.8,0.8c1.2,0.4,2.2,0.9,2.8,1.6
		s1.2,1.6,1.5,2.6L1827.9,507z M1749.6,357.9h-0.1l-31.3,90.6h63.2L1749.6,357.9z"/>
</g>
<g>
	<g>
		<path class="st0" d="M36.2,195.8c0,0.8-0.2,1.4-0.6,2c-0.4,0.6-1,1-2,1.3c-0.9,0.3-2.2,0.6-3.7,0.8c-1.5,0.2-3.5,0.4-5.8,0.4
			c-2.2,0-4.2-0.1-5.8-0.4c-1.6-0.2-2.9-0.5-3.8-0.8c-0.9-0.3-1.6-0.8-2-1.3c-0.4-0.6-0.6-1.2-0.6-2V21.2c0-0.7,0.2-1.4,0.6-2
			c0.4-0.6,1.1-1,2.1-1.3c1-0.3,2.2-0.6,3.8-0.8c1.5-0.2,3.4-0.4,5.6-0.4c2.3,0,4.3,0.1,5.8,0.4s2.8,0.5,3.7,0.8
			c0.9,0.3,1.6,0.8,2,1.3c0.4,0.6,0.6,1.2,0.6,2V195.8z"/>
	</g>
	<g>
		<path class="st0" d="M282.3,195.8c0,0.8-0.2,1.4-0.6,2c-0.4,0.6-1.1,1-2,1.3c-1,0.3-2.2,0.6-3.7,0.8c-1.5,0.2-3.4,0.4-5.9,0.4
			c-2.2,0-4.1-0.1-5.7-0.4c-1.6-0.2-2.8-0.5-3.8-0.8c-0.9-0.3-1.6-0.8-2-1.3c-0.4-0.6-0.6-1.2-0.6-2V37.4h-0.3l-64.1,159.1
			c-0.3,0.7-0.7,1.2-1.2,1.7c-0.5,0.5-1.3,0.9-2.2,1.2c-1,0.3-2.2,0.6-3.5,0.7c-1.4,0.1-3,0.2-4.9,0.2c-2,0-3.7-0.1-5.1-0.3
			c-1.4-0.2-2.6-0.4-3.5-0.8c-0.9-0.3-1.7-0.7-2.2-1.2c-0.5-0.5-0.9-1-1.1-1.5L108.8,37.4h-0.1v158.4c0,0.8-0.2,1.4-0.6,2
			c-0.4,0.6-1.1,1-2,1.3c-1,0.3-2.2,0.6-3.8,0.8c-1.5,0.2-3.5,0.4-5.9,0.4c-2.3,0-4.2-0.1-5.8-0.4c-1.5-0.2-2.8-0.5-3.7-0.8
			c-0.9-0.3-1.5-0.8-1.9-1.3c-0.3-0.6-0.5-1.2-0.5-2V28.5c0-3.9,1-6.7,3.1-8.4c2.1-1.7,4.4-2.5,7-2.5h14.8c3,0,5.7,0.3,8,0.8
			c2.3,0.6,4.3,1.5,6,2.7c1.7,1.2,3.1,2.8,4.3,4.6c1.1,1.9,2.1,4.1,3,6.6l52,131.7h0.7l54.1-131.3c1-2.8,2.2-5.2,3.4-7.2
			c1.2-2,2.6-3.5,4.1-4.7c1.5-1.2,3.1-2,4.9-2.5s3.9-0.8,6.3-0.8h15.6c1.4,0,2.8,0.2,4.1,0.6c1.3,0.4,2.4,1.1,3.3,2
			c0.9,0.9,1.6,2,2.2,3.4c0.6,1.4,0.9,3,0.9,5V195.8z"/>
	</g>
	<g>
		<path class="st0" d="M466.8,190.9c0.7,2.1,1.1,3.7,1.2,5c0,1.3-0.3,2.2-1.1,2.9c-0.7,0.7-2,1.1-3.7,1.3c-1.7,0.2-4.1,0.3-7,0.3
			s-5.2-0.1-7-0.2c-1.7-0.1-3-0.4-3.9-0.7c-0.9-0.3-1.5-0.8-2-1.3c-0.4-0.6-0.8-1.3-1.2-2.1l-15.6-44.3H351l-14.9,43.7
			c-0.3,0.8-0.7,1.6-1.1,2.2c-0.5,0.6-1.1,1.1-2,1.5c-0.9,0.4-2.2,0.7-3.8,0.9c-1.6,0.2-3.8,0.3-6.4,0.3c-2.7,0-4.9-0.1-6.7-0.4
			c-1.7-0.2-3-0.7-3.7-1.3c-0.7-0.7-1-1.6-1-2.9c0-1.3,0.4-2.9,1.2-5l61-168.9c0.4-1,0.9-1.9,1.5-2.5c0.6-0.7,1.5-1.2,2.7-1.5
			c1.2-0.4,2.7-0.6,4.5-0.8c1.8-0.1,4.1-0.2,7-0.2c3,0,5.5,0.1,7.4,0.2c2,0.1,3.6,0.4,4.8,0.8c1.2,0.4,2.2,0.9,2.8,1.6
			c0.7,0.7,1.2,1.6,1.5,2.6L466.8,190.9z M388.5,41.7h-0.1L357,132.4h63.2L388.5,41.7z"/>
	</g>
</g>
<path class="st0" d="M1830.5,410.3c-0.7-2.1-1.1-3.7-1.2-5c0-1.3,0.3-2.2,1.1-2.9s2-1.1,3.7-1.3c1.7-0.2,4.1-0.3,7-0.3
	c2.9,0,5.2,0.1,7,0.2c1.7,0.1,3,0.4,3.9,0.7c0.9,0.3,1.5,0.8,2,1.3c0.4,0.6,0.8,1.3,1.2,2.1l15.6,44.3h75.6l14.9-43.7
	c0.3-0.8,0.7-1.6,1.1-2.2c0.5-0.6,1.1-1.1,2-1.5c0.9-0.4,2.2-0.7,3.8-0.9c1.6-0.2,3.8-0.3,6.4-0.3c2.7,0,4.9,0.1,6.7,0.4
	c1.7,0.2,3,0.7,3.7,1.3c0.7,0.7,1,1.6,1,2.9c0,1.3-0.4,2.9-1.2,5l-61,168.9c-0.4,1-0.9,1.9-1.5,2.5c-0.6,0.7-1.5,1.2-2.7,1.5
	c-1.2,0.4-2.7,0.6-4.5,0.8c-1.8,0.1-4.1,0.2-7,0.2c-3,0-5.5-0.1-7.4-0.2c-2-0.1-3.6-0.4-4.8-0.8c-1.2-0.4-2.2-0.9-2.8-1.6
	c-0.7-0.7-1.2-1.6-1.5-2.6L1830.5,410.3z M1908.8,559.4h0.1l31.3-90.6H1877L1908.8,559.4z"/>
<path class="st0" d="M14.4,349.1c-0.7-2.1-1.1-3.7-1.2-5c0-1.3,0.3-2.2,1.1-2.9c0.7-0.7,2-1.1,3.7-1.3c1.7-0.2,4.1-0.3,7-0.3
	s5.2,0.1,7,0.2c1.7,0.1,3,0.4,3.9,0.7c0.9,0.3,1.5,0.8,2,1.3c0.4,0.6,0.8,1.3,1.2,2.1l15.6,44.3h75.6l14.9-43.7
	c0.3-0.8,0.7-1.6,1.1-2.2c0.5-0.6,1.1-1.1,2-1.5s2.2-0.7,3.8-0.9c1.6-0.2,3.8-0.3,6.4-0.3c2.7,0,4.9,0.1,6.7,0.4
	c1.7,0.2,3,0.7,3.7,1.3c0.7,0.7,1,1.6,1,2.9c0,1.3-0.4,2.9-1.2,5l-61,168.9c-0.4,1-0.9,1.9-1.5,2.5c-0.6,0.7-1.5,1.2-2.7,1.5
	c-1.2,0.4-2.7,0.6-4.5,0.8c-1.8,0.1-4.1,0.2-7,0.2c-3,0-5.5-0.1-7.4-0.2c-2-0.1-3.6-0.4-4.8-0.8c-1.2-0.4-2.2-0.9-2.8-1.6
	c-0.7-0.7-1.2-1.6-1.5-2.6L14.4,349.1z M92.7,498.3h0.1l31.3-90.6H60.9L92.7,498.3z"/>
<g>
	<polygon class="st1" points="1940,124.2 1940,282.1 2147.2,357.5 2147.2,199.6 	"/>
	<g>
		<polygon class="st2" points="2064.6,115.6 2064.6,189.7 1967.3,225.2 1967.3,151 		"/>
		<polygon class="st2" points="2064.6,209.5 2064.6,283.6 1967.3,319 1967.3,244.9 		"/>
		<polygon class="st3" points="2081.6,209.5 2081.6,283.6 2178.9,319 2178.9,244.9 		"/>
		<polygon class="st3" points="2081.6,303 2081.6,377.1 2178.9,412.5 2178.9,338.4 		"/>
	</g>
</g>
<g>
	<polygon class="st1" points="302.1,339.2 302.1,497.1 509.2,572.4 509.2,414.6 	"/>
	<g>
		<polygon class="st2" points="426.7,330.5 426.7,404.7 329.4,440.1 329.4,365.9 		"/>
		<polygon class="st2" points="426.7,424.4 426.7,498.6 329.4,534 329.4,459.8 		"/>
		<polygon class="st3" points="443.6,424.4 443.6,498.6 540.9,534 540.9,459.8 		"/>
		<polygon class="st3" points="443.6,517.9 443.6,592.1 540.9,627.5 540.9,553.3 		"/>
	</g>
</g>
</svg>
